# Blender v2.93.0 OBJ File: 'palmlane.blend'
# www.blender.org
mtllib wallridecement.mtl
o Cube.007
v 9.231394 -0.097549 8.234879
v 9.231394 1.017542 8.234879
v 9.231394 -0.097549 7.155471
v 9.231394 1.017542 8.046373
v 9.914885 -0.097549 8.234879
v 9.914885 1.017542 8.234879
v 9.914885 -0.097549 7.155471
v 9.914885 1.017542 8.046373
v 9.914885 0.013669 7.313353
v 9.231394 0.013669 7.313353
v 9.914885 -0.007947 7.227058
v 9.197756 -0.067390 7.241771
v 9.914885 0.046730 7.405751
v 9.231394 0.046730 7.405752
v 9.914885 0.088688 7.494465
v 9.231394 0.088688 7.494465
v 9.914885 0.139140 7.578639
v 9.231394 0.139140 7.578639
v 9.914885 0.197599 7.657461
v 9.231394 0.197599 7.657461
v 9.914885 0.987344 8.022246
v 9.914885 0.970609 8.023068
v 9.231394 0.987344 8.022246
v 9.231394 0.970609 8.023068
v 9.914885 0.499212 7.904989
v 9.231394 0.499212 7.904989
v 9.914885 0.336216 7.796079
v 9.231394 0.336216 7.796079
v 9.914885 0.872592 8.018252
v 9.231394 0.872592 8.018252
v 9.914885 0.587926 7.946948
v 9.231394 0.587926 7.946948
v 9.914885 0.680325 7.980008
v 9.231394 0.680325 7.980009
v 9.914885 0.263502 7.730175
v 9.231394 0.263502 7.730175
v 9.914885 0.415039 7.854537
v 9.231394 0.415039 7.854537
v 9.914885 0.775519 8.003853
v 9.231394 0.775519 8.003854
v 8.563775 -0.033547 8.731210
v 9.327032 -0.033547 9.494467
v 9.327032 1.081544 9.494467
v 9.193738 1.081544 9.361173
v 8.511228 -0.003388 8.767117
v 8.675414 0.077670 8.842849
v 8.740750 0.110731 8.908185
v 8.803480 0.152690 8.970915
v 8.863000 0.203141 9.030435
v 8.918736 0.261600 9.086170
v 9.177259 1.034611 9.344693
v 9.176678 1.051345 9.344112
v 9.173854 0.936594 9.341289
v 9.163672 0.839520 9.331106
v 9.146811 0.744326 9.314245
v 9.123434 0.651927 9.290869
v 8.970152 0.327504 9.137587
v 9.016753 0.400217 9.184188
v 9.058090 0.479040 9.225525
v 9.093764 0.563214 9.261199
vt 0.375000 0.250000
vt 0.395088 0.250000
vt 0.395088 0.500000
vt 0.375000 0.500000
vt 0.399935 0.516328
vt 0.407347 0.531951
vt 0.416754 0.545204
vt 0.428065 0.556053
vt 0.441171 0.564497
vt 0.455947 0.570583
vt 0.472249 0.574396
vt 0.489921 0.576009
vt 0.508792 0.575380
vt 0.528681 0.572139
vt 0.549397 0.565327
vt 0.570739 0.553191
vt 0.592503 0.533410
vt 0.614478 0.505306
vt 0.618230 0.500000
vt 0.625000 0.500000
vt 0.625000 0.750000
vt 0.375000 0.750000
vt 0.625000 1.000000
vt 0.375000 1.000000
vt 0.125000 0.500000
vt 0.125000 0.750000
vt 0.875000 0.500000
vt 0.875000 0.750000
vt 0.328125 0.659071
vt 0.328125 0.829944
vt 0.343750 0.829944
vt 0.343750 0.659071
vt 0.250000 0.829944
vt 0.250000 0.659071
vt 0.247332 0.659071
vt 0.247332 0.829944
vt 0.265625 0.829944
vt 0.265625 0.659071
vt 0.421875 0.659071
vt 0.421875 0.829944
vt 0.437500 0.829944
vt 0.437500 0.659071
vt 0.359375 0.659071
vt 0.359375 0.829944
vt 0.375000 0.829944
vt 0.375000 0.659071
vt 0.390625 0.829944
vt 0.390625 0.659071
vt 0.406250 0.829944
vt 0.406250 0.659071
vt 0.281250 0.659071
vt 0.281250 0.829944
vt 0.296875 0.829944
vt 0.296875 0.659071
vt 0.453125 0.659071
vt 0.453125 0.829944
vt 0.467289 0.829944
vt 0.467289 0.659072
vt 0.312500 0.659071
vt 0.312500 0.829944
vt 0.618230 0.250000
vt 0.625000 0.250000
vt 0.375000 0.000000
vt 0.625000 0.000000
vt 0.625000 0.250000
vt 0.618230 0.250000
vt 0.614478 0.244694
vt 0.592503 0.216590
vt 0.570739 0.196809
vt 0.549397 0.184673
vt 0.528681 0.177861
vt 0.508792 0.174620
vt 0.489920 0.173991
vt 0.472249 0.175604
vt 0.455947 0.179417
vt 0.441171 0.185503
vt 0.428065 0.193947
vt 0.416754 0.204796
vt 0.407347 0.218049
vt 0.399935 0.233672
vt 0.395088 0.250000
vt 0.375000 0.250000
vt 0.265625 0.659071
vt 0.250000 0.659071
vt 0.125000 0.750000
vt 0.125000 0.500000
vt 0.625000 1.000000
vt 0.375000 1.000000
vt 0.875000 0.500000
vt 0.875000 0.750000
vt 0.247332 0.659071
vt 0.296875 0.659071
vt 0.281250 0.659071
vt 0.421875 0.659071
vt 0.406250 0.659071
vt 0.375000 0.659071
vt 0.359375 0.659071
vt 0.390625 0.659071
vt 0.467289 0.659072
vt 0.453125 0.659071
vt 0.343750 0.659071
vt 0.328125 0.659071
vt 0.312500 0.659071
vt 0.437500 0.659071
vn -0.0400 0.7920 -0.6092
vn 1.0000 0.0000 0.0000
vn 0.0000 0.0000 1.0000
vn 0.0000 -1.0000 0.0000
vn 0.0000 1.0000 0.0000
vn 0.0000 0.5141 -0.8577
vn 0.0000 -0.0491 -0.9988
vn -0.0000 0.0491 -0.9988
vn -0.0000 0.9040 -0.4276
vn 0.0000 0.6716 -0.7410
vn 0.0000 0.7410 -0.6716
vn -0.0000 0.8032 -0.5957
vn -0.0000 0.2430 -0.9700
vn -0.0414 0.8416 -0.5385
vn 0.0000 0.8577 -0.5141
vn 0.0000 0.4276 -0.9040
vn -0.0000 0.9415 -0.3369
vn 0.0000 0.1467 -0.9892
vn 0.0000 0.5957 -0.8032
vn 0.0000 0.6242 -0.7813
vn 0.0000 0.3369 -0.9415
vn -0.7022 -0.0097 0.7119
vn -0.9989 0.0192 -0.0431
vn -0.0731 -0.9969 0.0303
vn 0.9971 0.0000 -0.0757
vn 0.1258 0.9907 -0.0521
vn -0.9522 0.3017 -0.0480
vn -0.9990 -0.0191 -0.0402
vn -0.8104 -0.4812 -0.3340
vn -0.6902 0.1888 -0.6985
vn -0.6753 0.2807 -0.6820
vn -0.9339 0.0618 0.3522
vn -0.9329 0.0374 0.3583
vn -0.3835 0.8245 -0.4160
vn -0.3132 0.8795 -0.3583
vn -0.8344 0.4597 0.3041
vn -0.8726 0.3872 0.2976
vn -0.5524 0.6184 -0.5589
vn -0.5038 0.6927 -0.5160
vn -0.9165 0.2587 0.3049
vn -0.9268 0.2058 0.3141
vn -0.4474 0.7618 -0.4685
vn -0.8993 0.3195 0.2987
vn -0.2316 0.9006 -0.3677
vn -0.6991 0.3576 -0.6191
vn -0.9078 0.3972 0.1345
vn -0.7442 0.6138 0.2634
vn -0.5934 0.5395 -0.5973
vn -0.9322 0.1605 0.3245
vn -0.6994 0.0950 -0.7084
vn -0.9319 0.0153 0.3623
vn -0.6544 0.3702 -0.6593
vn -0.6273 0.4566 -0.6308
vn -0.9343 0.1222 0.3348
vn -0.9346 0.0897 0.3442
vn -0.2388 0.9250 -0.2953
vn -0.7833 0.5328 0.3203
usemtl None
s off
f 3/1/1 12/2/1 11/3/1 7/4/1
f 7/4/2 11/3/2 9/5/2 13/6/2 15/7/2 17/8/2 19/9/2 35/10/2 27/11/2 37/12/2 25/13/2 31/14/2 33/15/2 39/16/2 29/17/2 22/18/2 21/19/2 8/20/2 6/21/2 5/22/2
f 5/22/3 6/21/3 2/23/3 1/24/3
f 3/25/4 7/4/4 5/22/4 1/26/4
f 8/20/5 4/27/5 2/28/5 6/21/5
f 26/29/6 25/30/6 37/31/6 38/32/6
f 22/33/7 24/34/7 23/35/7 21/36/7
f 24/34/8 22/33/8 29/37/8 30/38/8
f 16/39/9 15/40/9 13/41/9 14/42/9
f 28/43/10 27/44/10 35/45/10 36/46/10
f 36/46/11 35/45/11 19/47/11 20/48/11
f 20/48/12 19/47/12 17/49/12 18/50/12
f 40/51/13 39/52/13 33/53/13 34/54/13
f 10/55/14 9/56/14 11/57/14 12/58/14
f 18/50/15 17/49/15 15/40/15 16/39/15
f 32/59/16 31/60/16 25/30/16 26/29/16
f 14/42/17 13/41/17 9/56/17 10/55/17
f 30/38/18 29/37/18 39/52/18 40/51/18
f 38/32/19 37/31/19 27/44/19 28/43/19
f 21/19/20 23/61/20 4/62/20 8/20/20
f 34/54/21 33/53/21 31/60/21 32/59/21
f 42/63/22 43/64/22 44/65/22 52/66/22 51/67/22 53/68/22 54/69/22 55/70/22 56/71/22 60/72/22 59/73/22 58/74/22 57/75/22 50/76/22 49/77/22 48/78/22 47/79/22 46/80/22 45/81/22 41/82/22
f 24/34/23 30/38/23 53/83/23 51/84/23
f 3/25/24 1/26/24 42/85/24 41/86/24
f 1/24/25 2/23/25 43/87/25 42/88/25
f 2/28/26 4/27/26 44/89/26 43/90/26
f 4/62/27 23/61/27 52/66/27 44/65/27
f 23/35/28 24/34/28 51/84/28 52/91/28
f 12/2/29 3/1/29 41/82/29 45/81/29
s 1
f 40/51/30 34/54/31 55/92/32 54/93/33
f 18/50/34 16/39/35 48/94/36 49/95/37
f 28/43/38 36/46/39 57/96/40 58/97/41
f 20/48/42 18/50/34 49/95/37 50/98/43
f 10/55/44 12/58/45 45/99/46 46/100/47
f 38/32/48 28/43/38 58/97/41 59/101/49
f 30/38/50 40/51/30 54/93/33 53/83/51
f 32/59/52 26/29/53 60/102/54 56/103/55
f 14/42/56 10/55/44 46/100/47 47/104/57
f 34/54/31 32/59/52 56/103/55 55/92/32
f 26/29/53 38/32/48 59/101/49 60/102/54
f 16/39/35 14/42/56 47/104/57 48/94/36
f 36/46/39 20/48/42 50/98/43 57/96/40
