# Blender v2.92.0 OBJ File: 'stairs.blend'
# www.blender.org
mtllib rail.mtl
o Cube.003
v 0.113389 1.046581 -17.353291
v 0.113389 1.083109 -17.353291
v 0.113389 1.046581 -19.692844
v 0.113389 1.083109 -19.692844
v 0.225651 1.046581 -17.353291
v 0.225651 1.083109 -17.353291
v 0.225651 1.046581 -19.692844
v 0.225651 1.083109 -19.692844
v 0.113389 1.081397 -19.739399
v 0.113389 1.048292 -19.723961
v 0.225651 1.048292 -19.723961
v 0.225651 1.081397 -19.739399
v 0.113389 0.660331 -21.151457
v 0.113389 0.623809 -21.150822
v 0.225651 0.623809 -21.150822
v 0.225651 0.660331 -21.151457
v 0.149705 1.064599 -17.372522
v 0.149705 0.163300 -17.372522
v 0.149705 1.064599 -17.400282
v 0.149705 0.163300 -17.400282
v 0.194610 1.064599 -17.372522
v 0.194610 0.163300 -17.372522
v 0.194610 1.064599 -17.400282
v 0.194610 0.163300 -17.400282
v 0.149705 1.064599 -18.506798
v 0.149705 0.163300 -18.506798
v 0.149705 1.064599 -18.534557
v 0.149705 0.163300 -18.534557
v 0.194610 1.064599 -18.506798
v 0.194610 0.163300 -18.506798
v 0.194610 1.064599 -18.534557
v 0.194610 0.163300 -18.534557
v 0.149705 1.064599 -19.693655
v 0.149705 0.163300 -19.693655
v 0.149705 1.064599 -19.721415
v 0.149705 0.163300 -19.721415
v 0.194610 1.064599 -19.693655
v 0.194610 0.163300 -19.693655
v 0.194610 1.064599 -19.721415
v 0.194610 0.163300 -19.721415
v 0.149705 0.860862 -20.426052
v 0.149705 0.149195 -20.426052
v 0.149705 0.860862 -20.453812
v 0.149705 0.149195 -20.453812
v 0.194610 0.860862 -20.426052
v 0.194610 0.149195 -20.426052
v 0.194610 0.860862 -20.453812
v 0.194610 0.149195 -20.453812
v 0.149705 0.655439 -21.120890
v 0.149705 0.061611 -21.120890
v 0.149705 0.655439 -21.148649
v 0.149705 0.061611 -21.148649
v 0.194610 0.655439 -21.120890
v 0.194610 0.061611 -21.120890
v 0.194610 0.655439 -21.148649
v 0.194610 0.061611 -21.148649
vt 0.375000 0.000000
vt 0.625000 0.000000
vt 0.625000 0.250000
vt 0.375000 0.250000
vt 0.875000 0.500000
vt 0.625000 0.500000
vt 0.625000 0.500000
vt 0.875000 0.500000
vt 0.375000 0.500000
vt 0.625000 0.750000
vt 0.375000 0.750000
vt 0.625000 1.000000
vt 0.375000 1.000000
vt 0.125000 0.500000
vt 0.125000 0.750000
vt 0.875000 0.750000
vt 0.625000 0.500000
vt 0.875000 0.500000
vt 0.625000 0.250000
vt 0.375000 0.250000
vt 0.375000 0.500000
vt 0.125000 0.500000
vt 0.375000 0.250000
vt 0.625000 0.250000
vt 0.375000 0.500000
vt 0.125000 0.500000
vt 0.375000 0.000000
vt 0.375000 0.250000
vt 0.625000 0.250000
vt 0.625000 0.000000
vt 0.375000 0.500000
vt 0.625000 0.500000
vt 0.375000 0.750000
vt 0.625000 0.750000
vt 0.375000 1.000000
vt 0.625000 1.000000
vt 0.125000 0.500000
vt 0.125000 0.750000
vt 0.875000 0.750000
vt 0.875000 0.500000
vt 0.375000 0.000000
vt 0.375000 0.250000
vt 0.625000 0.250000
vt 0.625000 0.000000
vt 0.375000 0.500000
vt 0.625000 0.500000
vt 0.375000 0.750000
vt 0.625000 0.750000
vt 0.375000 1.000000
vt 0.625000 1.000000
vt 0.125000 0.500000
vt 0.125000 0.750000
vt 0.875000 0.750000
vt 0.875000 0.500000
vt 0.375000 0.000000
vt 0.375000 0.250000
vt 0.625000 0.250000
vt 0.625000 0.000000
vt 0.375000 0.500000
vt 0.625000 0.500000
vt 0.375000 0.750000
vt 0.625000 0.750000
vt 0.375000 1.000000
vt 0.625000 1.000000
vt 0.125000 0.500000
vt 0.125000 0.750000
vt 0.875000 0.750000
vt 0.875000 0.500000
vt 0.375000 0.000000
vt 0.375000 0.250000
vt 0.625000 0.250000
vt 0.625000 0.000000
vt 0.375000 0.500000
vt 0.625000 0.500000
vt 0.375000 0.750000
vt 0.625000 0.750000
vt 0.375000 1.000000
vt 0.625000 1.000000
vt 0.125000 0.500000
vt 0.125000 0.750000
vt 0.875000 0.750000
vt 0.875000 0.500000
vt 0.375000 0.000000
vt 0.375000 0.250000
vt 0.625000 0.250000
vt 0.625000 0.000000
vt 0.375000 0.500000
vt 0.625000 0.500000
vt 0.375000 0.750000
vt 0.625000 0.750000
vt 0.375000 1.000000
vt 0.625000 1.000000
vt 0.125000 0.500000
vt 0.125000 0.750000
vt 0.875000 0.750000
vt 0.875000 0.500000
vn -1.0000 0.0000 0.0000
vn 0.0000 0.9993 -0.0367
vn 1.0000 0.0000 0.0000
vn 0.0000 0.0000 1.0000
vn 0.0000 -1.0000 0.0000
vn 0.0000 1.0000 0.0000
vn 0.0000 0.9583 -0.2858
vn 0.0000 -0.9985 -0.0549
vn 0.0000 -0.0174 -0.9998
vn 0.0000 -0.9585 0.2851
vn 0.0000 0.0000 -1.0000
usemtl None
s off
f 1/1/1 2/2/1 4/3/1 3/4/1
f 4/5/2 8/6/2 12/7/2 9/8/2
f 7/9/3 8/6/3 6/10/3 5/11/3
f 5/11/4 6/10/4 2/12/4 1/13/4
f 3/14/5 7/9/5 5/11/5 1/15/5
f 8/6/6 4/5/6 2/16/6 6/10/6
f 9/8/7 12/7/7 16/17/7 13/18/7
f 3/4/1 4/3/1 9/19/1 10/20/1
f 8/6/3 7/9/3 11/21/3 12/7/3
f 7/9/8 3/14/8 10/22/8 11/21/8
f 14/23/9 13/24/9 16/17/9 15/25/9
f 10/20/1 9/19/1 13/24/1 14/23/1
f 12/7/3 11/21/3 15/25/3 16/17/3
f 11/21/10 10/22/10 14/26/10 15/25/10
f 17/27/1 19/28/1 20/29/1 18/30/1
f 19/28/11 23/31/11 24/32/11 20/29/11
f 23/31/3 21/33/3 22/34/3 24/32/3
f 21/33/4 17/35/4 18/36/4 22/34/4
f 19/37/6 17/38/6 21/33/6 23/31/6
f 24/32/5 22/34/5 18/39/5 20/40/5
f 25/41/1 27/42/1 28/43/1 26/44/1
f 27/42/11 31/45/11 32/46/11 28/43/11
f 31/45/3 29/47/3 30/48/3 32/46/3
f 29/47/4 25/49/4 26/50/4 30/48/4
f 27/51/6 25/52/6 29/47/6 31/45/6
f 32/46/5 30/48/5 26/53/5 28/54/5
f 33/55/1 35/56/1 36/57/1 34/58/1
f 35/56/11 39/59/11 40/60/11 36/57/11
f 39/59/3 37/61/3 38/62/3 40/60/3
f 37/61/4 33/63/4 34/64/4 38/62/4
f 35/65/6 33/66/6 37/61/6 39/59/6
f 40/60/5 38/62/5 34/67/5 36/68/5
f 41/69/1 43/70/1 44/71/1 42/72/1
f 43/70/11 47/73/11 48/74/11 44/71/11
f 47/73/3 45/75/3 46/76/3 48/74/3
f 45/75/4 41/77/4 42/78/4 46/76/4
f 43/79/6 41/80/6 45/75/6 47/73/6
f 48/74/5 46/76/5 42/81/5 44/82/5
f 49/83/1 51/84/1 52/85/1 50/86/1
f 51/84/11 55/87/11 56/88/11 52/85/11
f 55/87/3 53/89/3 54/90/3 56/88/3
f 53/89/4 49/91/4 50/92/4 54/90/4
f 51/93/6 49/94/6 53/89/6 55/87/6
f 56/88/5 54/90/5 50/95/5 52/96/5
