# Blender v2.92.0 OBJ File: 'stairs.blend'
# www.blender.org
mtllib stairs.mtl
o Cube
v 2.099965 0.187337 0.196529
v 2.099965 -0.012663 0.196529
v 2.099965 0.187337 0.496529
v 2.099965 -0.012663 0.496529
v -1.900036 0.187337 0.196529
v -1.900036 -0.012663 0.196529
v -1.900036 0.187337 0.496529
v -1.900036 -0.012663 0.496529
v 2.099965 0.337337 0.496529
v 2.099965 0.137337 0.496529
v 2.099965 0.337337 0.796529
v 2.099965 0.137337 0.796529
v -1.900036 0.337337 0.496529
v -1.900036 0.137337 0.496529
v -1.900036 0.337337 0.796529
v -1.900036 0.137337 0.796529
v 2.099965 0.487337 0.796529
v 2.099965 0.287337 0.796529
v 2.099965 0.487337 1.096529
v 2.099965 0.287337 1.096529
v -1.900036 0.487337 0.796529
v -1.900036 0.287337 0.796529
v -1.900036 0.487337 1.096529
v -1.900036 0.287337 1.096529
v 2.099965 0.637337 1.096529
v 2.099965 0.437337 1.096529
v 2.099965 0.637337 1.396529
v 2.099965 0.437337 1.396529
v -1.900036 0.637337 1.096529
v -1.900036 0.437337 1.096529
v -1.900036 0.637337 1.396529
v -1.900036 0.437337 1.396529
v 2.099965 0.787337 1.396529
v 2.099965 0.587337 1.396529
v 2.099965 0.787337 9.948019
v 2.099965 0.587337 9.948019
v -1.900036 0.787337 1.396529
v -1.900036 0.587337 1.396529
v -1.900036 0.787337 9.948019
v -1.900036 0.587337 9.948019
v 2.096177 -0.011475 9.896688
v 2.096177 3.389349 9.896688
v 2.096177 -0.011475 0.193499
v 2.096177 3.389349 0.193499
v 2.632838 -0.011475 9.896688
v 2.632838 3.389349 9.896688
v 2.632838 -0.011475 0.193499
v 2.632838 3.389349 0.193499
v -2.794490 -0.000659 9.927044
v -2.794490 1.379914 9.927044
v -2.794490 -0.000659 -4.566803
v -2.794490 1.379914 -4.566803
v -1.853798 -0.000659 9.927044
v -1.853798 1.379914 9.927044
v -1.853798 -0.000659 -4.566803
v -1.853798 1.379914 -4.566803
v -2.586221 1.379914 9.673727
v -2.586221 1.379914 -4.313485
v -2.062068 1.379914 -4.313485
v -2.062068 1.379914 9.673727
v -2.586221 1.327796 9.673727
v -2.586221 1.327796 -4.313485
v -2.062068 1.327796 -4.313485
v -2.062068 1.327796 9.673727
vt 0.625000 0.500000
vt 0.875000 0.500000
vt 0.875000 0.750000
vt 0.625000 0.750000
vt 0.375000 0.750000
vt 0.625000 1.000000
vt 0.375000 1.000000
vt 0.375000 0.000000
vt 0.625000 0.000000
vt 0.625000 0.250000
vt 0.375000 0.250000
vt 0.125000 0.500000
vt 0.375000 0.500000
vt 0.125000 0.750000
vt 0.625000 0.500000
vt 0.875000 0.500000
vt 0.875000 0.750000
vt 0.625000 0.750000
vt 0.375000 0.750000
vt 0.625000 1.000000
vt 0.375000 1.000000
vt 0.375000 0.000000
vt 0.625000 0.000000
vt 0.625000 0.250000
vt 0.375000 0.250000
vt 0.125000 0.500000
vt 0.375000 0.500000
vt 0.125000 0.750000
vt 0.625000 0.500000
vt 0.875000 0.500000
vt 0.875000 0.750000
vt 0.625000 0.750000
vt 0.375000 0.750000
vt 0.625000 1.000000
vt 0.375000 1.000000
vt 0.375000 0.000000
vt 0.625000 0.000000
vt 0.625000 0.250000
vt 0.375000 0.250000
vt 0.125000 0.500000
vt 0.375000 0.500000
vt 0.125000 0.750000
vt 0.625000 0.500000
vt 0.875000 0.500000
vt 0.875000 0.750000
vt 0.625000 0.750000
vt 0.375000 0.750000
vt 0.625000 1.000000
vt 0.375000 1.000000
vt 0.375000 0.000000
vt 0.625000 0.000000
vt 0.625000 0.250000
vt 0.375000 0.250000
vt 0.125000 0.500000
vt 0.375000 0.500000
vt 0.125000 0.750000
vt 0.625000 0.500000
vt 0.875000 0.500000
vt 0.875000 0.750000
vt 0.625000 0.750000
vt 0.375000 0.750000
vt 0.625000 1.000000
vt 0.375000 1.000000
vt 0.375000 0.000000
vt 0.625000 0.000000
vt 0.625000 0.250000
vt 0.375000 0.250000
vt 0.125000 0.500000
vt 0.375000 0.500000
vt 0.125000 0.750000
vt 0.125000 0.500000
vt 0.375000 0.500000
vt 0.375000 0.750000
vt 0.125000 0.750000
vt 0.375000 0.000000
vt 0.625000 0.000000
vt 0.625000 0.250000
vt 0.375000 0.250000
vt 0.625000 0.500000
vt 0.375000 0.500000
vt 0.625000 0.750000
vt 0.375000 0.750000
vt 0.625000 1.000000
vt 0.375000 1.000000
vt 0.125000 0.500000
vt 0.125000 0.750000
vt 0.625000 0.000000
vt 0.625000 0.250000
vt 0.625000 1.000000
vt 0.625000 0.750000
vt 0.625000 0.750000
vt 0.625000 1.000000
vt 0.625000 0.500000
vt 0.625000 0.250000
vt 0.625000 0.500000
vt 0.625000 0.000000
vt 0.875000 0.500000
vt 0.875000 0.750000
vt 0.375000 0.000000
vt 0.625000 0.000000
vt 0.625000 0.250000
vt 0.375000 0.250000
vt 0.625000 0.500000
vt 0.625000 0.750000
vt 0.625000 1.000000
vt 0.375000 1.000000
vt 0.875000 0.500000
vt 0.875000 0.750000
vn 0.0000 1.0000 0.0000
vn 0.0000 0.0000 1.0000
vn -1.0000 0.0000 0.0000
vn 0.0000 -1.0000 0.0000
vn 1.0000 0.0000 0.0000
vn 0.0000 0.0000 -1.0000
usemtl Material
s off
f 1/1/1 5/2/1 7/3/1 3/4/1
f 4/5/2 3/4/2 7/6/2 8/7/2
f 8/8/3 7/9/3 5/10/3 6/11/3
f 6/12/4 2/13/4 4/5/4 8/14/4
f 2/13/5 1/1/5 3/4/5 4/5/5
f 6/11/6 5/10/6 1/1/6 2/13/6
f 9/15/1 13/16/1 15/17/1 11/18/1
f 12/19/2 11/18/2 15/20/2 16/21/2
f 16/22/3 15/23/3 13/24/3 14/25/3
f 14/26/4 10/27/4 12/19/4 16/28/4
f 10/27/5 9/15/5 11/18/5 12/19/5
f 14/25/6 13/24/6 9/15/6 10/27/6
f 17/29/1 21/30/1 23/31/1 19/32/1
f 20/33/2 19/32/2 23/34/2 24/35/2
f 24/36/3 23/37/3 21/38/3 22/39/3
f 22/40/4 18/41/4 20/33/4 24/42/4
f 18/41/5 17/29/5 19/32/5 20/33/5
f 22/39/6 21/38/6 17/29/6 18/41/6
f 25/43/1 29/44/1 31/45/1 27/46/1
f 28/47/2 27/46/2 31/48/2 32/49/2
f 32/50/3 31/51/3 29/52/3 30/53/3
f 30/54/4 26/55/4 28/47/4 32/56/4
f 26/55/5 25/43/5 27/46/5 28/47/5
f 30/53/6 29/52/6 25/43/6 26/55/6
f 33/57/1 37/58/1 39/59/1 35/60/1
f 36/61/2 35/60/2 39/62/2 40/63/2
f 40/64/3 39/65/3 37/66/3 38/67/3
f 38/68/4 34/69/4 36/61/4 40/70/4
f 34/69/5 33/57/5 35/60/5 36/61/5
f 38/67/6 37/66/6 33/57/6 34/69/6
f 43/71/4 47/72/4 45/73/4 41/74/4
f 49/75/3 50/76/3 52/77/3 51/78/3
f 51/78/6 52/77/6 56/79/6 55/80/6
f 55/80/5 56/79/5 54/81/5 53/82/5
f 53/82/2 54/81/2 50/83/2 49/84/2
f 51/85/4 55/80/4 53/82/4 49/86/4
f 52/77/1 50/76/1 57/87/1 58/88/1
f 57/89/6 60/90/6 64/91/6 61/92/6
f 50/83/1 54/81/1 60/90/1 57/89/1
f 56/79/1 52/77/1 58/88/1 59/93/1
f 54/81/1 56/79/1 59/93/1 60/90/1
f 59/93/2 58/88/2 62/94/2 63/95/2
f 60/90/3 59/93/3 63/95/3 64/91/3
f 58/88/5 57/87/5 61/96/5 62/94/5
usemtl Material.001
f 63/95/1 62/97/1 61/98/1 64/91/1
usemtl Material.006
f 41/99/3 42/100/3 44/101/3 43/102/3
f 43/102/6 44/101/6 48/103/6 47/72/6
f 47/72/5 48/103/5 46/104/5 45/73/5
f 45/73/2 46/104/2 42/105/2 41/106/2
f 48/103/1 44/107/1 42/108/1 46/104/1
o Cylinder.006
v 1.987187 0.779929 0.063367
v 1.987187 1.544334 1.702640
v 1.992647 0.779345 0.063639
v 1.992647 1.543750 1.702912
v 1.997897 0.777615 0.064446
v 1.997897 1.542020 1.703719
v 2.002735 0.774805 0.065756
v 2.002735 1.539211 1.705029
v 2.006976 0.771024 0.067519
v 2.006976 1.535430 1.706792
v 2.010457 0.766417 0.069667
v 2.010457 1.530822 1.708940
v 2.013043 0.761161 0.072118
v 2.013043 1.525566 1.711391
v 2.014636 0.755457 0.074778
v 2.014636 1.519863 1.714051
v 2.015174 0.749526 0.077544
v 2.015174 1.513931 1.716817
v 2.014636 0.743595 0.080310
v 2.014636 1.508000 1.719583
v 2.013043 0.737891 0.082969
v 2.013043 1.502297 1.722242
v 2.010457 0.732635 0.085420
v 2.010457 1.497040 1.724693
v 2.006976 0.728028 0.087569
v 2.006976 1.492433 1.726842
v 2.002735 0.724247 0.089332
v 2.002735 1.488652 1.728605
v 1.997897 0.721437 0.090642
v 1.997897 1.485843 1.729915
v 1.992647 0.719707 0.091448
v 1.992647 1.484113 1.730721
v 1.987187 0.719123 0.091721
v 1.987187 1.483528 1.730994
v 1.981727 0.719707 0.091448
v 1.981727 1.484113 1.730721
v 1.976477 0.721437 0.090642
v 1.976477 1.485843 1.729915
v 1.971638 0.724247 0.089332
v 1.971638 1.488652 1.728605
v 1.967397 0.728028 0.087569
v 1.967397 1.492433 1.726842
v 1.963917 0.732635 0.085420
v 1.963917 1.497040 1.724693
v 1.961330 0.737891 0.082969
v 1.961330 1.502297 1.722242
v 1.959738 0.743595 0.080310
v 1.959738 1.508000 1.719583
v 1.959200 0.749526 0.077544
v 1.959200 1.513931 1.716817
v 1.959738 0.755457 0.074778
v 1.959738 1.519863 1.714051
v 1.961330 0.761161 0.072118
v 1.961330 1.525566 1.711391
v 1.963917 0.766417 0.069667
v 1.963917 1.530823 1.708940
v 1.967397 0.771024 0.067519
v 1.967397 1.535430 1.706792
v 1.971638 0.774805 0.065756
v 1.971638 1.539211 1.705029
v 1.976477 0.777615 0.064446
v 1.976477 1.542020 1.703719
v 1.981727 0.779345 0.063639
v 1.981727 1.543750 1.702912
vt 1.000000 0.500000
vt 1.000000 1.000000
vt 0.968750 1.000000
vt 0.968750 0.500000
vt 0.937500 1.000000
vt 0.937500 0.500000
vt 0.906250 1.000000
vt 0.906250 0.500000
vt 0.875000 1.000000
vt 0.875000 0.500000
vt 0.843750 1.000000
vt 0.843750 0.500000
vt 0.812500 1.000000
vt 0.812500 0.500000
vt 0.781250 1.000000
vt 0.781250 0.500000
vt 0.750000 1.000000
vt 0.750000 0.500000
vt 0.718750 1.000000
vt 0.718750 0.500000
vt 0.687500 1.000000
vt 0.687500 0.500000
vt 0.656250 1.000000
vt 0.656250 0.500000
vt 0.625000 1.000000
vt 0.625000 0.500000
vt 0.593750 1.000000
vt 0.593750 0.500000
vt 0.562500 1.000000
vt 0.562500 0.500000
vt 0.531250 1.000000
vt 0.531250 0.500000
vt 0.500000 1.000000
vt 0.500000 0.500000
vt 0.468750 1.000000
vt 0.468750 0.500000
vt 0.437500 1.000000
vt 0.437500 0.500000
vt 0.406250 1.000000
vt 0.406250 0.500000
vt 0.375000 1.000000
vt 0.375000 0.500000
vt 0.343750 1.000000
vt 0.343750 0.500000
vt 0.312500 1.000000
vt 0.312500 0.500000
vt 0.281250 1.000000
vt 0.281250 0.500000
vt 0.250000 1.000000
vt 0.250000 0.500000
vt 0.218750 1.000000
vt 0.218750 0.500000
vt 0.187500 1.000000
vt 0.187500 0.500000
vt 0.156250 1.000000
vt 0.156250 0.500000
vt 0.125000 1.000000
vt 0.125000 0.500000
vt 0.093750 1.000000
vt 0.093750 0.500000
vt 0.062500 1.000000
vt 0.062500 0.500000
vt 0.296822 0.485388
vt 0.250000 0.490000
vt 0.203179 0.485389
vt 0.158156 0.471731
vt 0.116663 0.449553
vt 0.080295 0.419706
vt 0.050447 0.383337
vt 0.028269 0.341844
vt 0.014612 0.296822
vt 0.010000 0.250000
vt 0.014611 0.203179
vt 0.028269 0.158156
vt 0.050447 0.116663
vt 0.080294 0.080294
vt 0.116663 0.050447
vt 0.158156 0.028269
vt 0.203178 0.014612
vt 0.250000 0.010000
vt 0.296822 0.014612
vt 0.341844 0.028269
vt 0.383337 0.050447
vt 0.419706 0.080294
vt 0.449553 0.116663
vt 0.471731 0.158156
vt 0.485388 0.203178
vt 0.490000 0.250000
vt 0.485388 0.296822
vt 0.471731 0.341844
vt 0.449553 0.383337
vt 0.419706 0.419706
vt 0.383337 0.449553
vt 0.341844 0.471731
vt 0.031250 1.000000
vt 0.031250 0.500000
vt 0.000000 1.000000
vt 0.000000 0.500000
vt 0.750000 0.490000
vt 0.796822 0.485388
vt 0.841844 0.471731
vt 0.883337 0.449553
vt 0.919706 0.419706
vt 0.949553 0.383337
vt 0.971731 0.341844
vt 0.985388 0.296822
vt 0.990000 0.250000
vt 0.985388 0.203178
vt 0.971731 0.158156
vt 0.949553 0.116663
vt 0.919706 0.080294
vt 0.883337 0.050447
vt 0.841844 0.028269
vt 0.796822 0.014612
vt 0.750000 0.010000
vt 0.703178 0.014612
vt 0.658156 0.028269
vt 0.616663 0.050447
vt 0.580294 0.080294
vt 0.550447 0.116663
vt 0.528269 0.158156
vt 0.514611 0.203179
vt 0.510000 0.250000
vt 0.514612 0.296822
vt 0.528269 0.341844
vt 0.550447 0.383337
vt 0.580295 0.419706
vt 0.616663 0.449553
vt 0.658156 0.471731
vt 0.703179 0.485389
vn 0.0000 0.3750 -0.9270
vn 0.0000 0.9512 0.3085
vn 0.1689 0.9331 0.3174
vn 0.1689 0.3566 -0.9188
vn 0.3237 0.8820 0.3424
vn 0.3237 0.3046 -0.8957
vn 0.4547 0.8057 0.3796
vn 0.4547 0.2271 -0.8612
vn 0.5579 0.7132 0.4244
vn 0.5579 0.1333 -0.8191
vn 0.6339 0.6118 0.4731
vn 0.6339 0.0308 -0.7728
vn 0.6854 0.5062 0.5234
vn 0.6854 -0.0756 -0.7242
vn 0.7150 0.3990 0.5741
vn 0.7150 -0.1833 -0.6747
vn 0.7246 0.2912 0.6246
vn 0.7246 -0.2912 -0.6245
vn 0.7150 0.1833 0.6747
vn 0.7150 -0.3990 -0.5741
vn 0.6854 0.0756 0.7242
vn 0.6854 -0.5062 -0.5234
vn 0.6339 -0.0308 0.7728
vn 0.6339 -0.6118 -0.4731
vn 0.5579 -0.1334 0.8191
vn 0.5579 -0.7132 -0.4244
vn 0.4547 -0.2271 0.8612
vn 0.4547 -0.8057 -0.3796
vn 0.3237 -0.3046 0.8957
vn 0.3237 -0.8820 -0.3424
vn 0.1689 -0.3566 0.9188
vn 0.1689 -0.9331 -0.3174
vn 0.0000 -0.3750 0.9270
vn 0.0000 -0.9512 -0.3085
vn -0.1689 -0.3566 0.9188
vn -0.1689 -0.9331 -0.3174
vn -0.3237 -0.3046 0.8957
vn -0.3237 -0.8820 -0.3424
vn -0.4547 -0.2271 0.8612
vn -0.4547 -0.8057 -0.3796
vn -0.5579 -0.1333 0.8191
vn -0.5579 -0.7132 -0.4244
vn -0.6339 -0.0308 0.7728
vn -0.6339 -0.6118 -0.4731
vn -0.6854 0.0756 0.7242
vn -0.6854 -0.5062 -0.5234
vn -0.7150 0.1833 0.6746
vn -0.7150 -0.3990 -0.5741
vn -0.7246 0.2912 0.6246
vn -0.7246 -0.2912 -0.6246
vn -0.7150 0.3990 0.5741
vn -0.7150 -0.1833 -0.6747
vn -0.6854 0.5062 0.5234
vn -0.6854 -0.0756 -0.7242
vn -0.6339 0.6118 0.4731
vn -0.6339 0.0308 -0.7728
vn -0.5579 0.7132 0.4244
vn -0.5579 0.1333 -0.8191
vn -0.4547 0.8057 0.3796
vn -0.4547 0.2271 -0.8612
vn -0.3237 0.8820 0.3424
vn -0.3237 0.3046 -0.8957
vn -0.1689 0.9331 0.3174
vn -0.1689 0.3566 -0.9188
usemtl None
s 1
f 65/109/7 66/110/8 68/111/9 67/112/10
f 67/112/10 68/111/9 70/113/11 69/114/12
f 69/114/12 70/113/11 72/115/13 71/116/14
f 71/116/14 72/115/13 74/117/15 73/118/16
f 73/118/16 74/117/15 76/119/17 75/120/18
f 75/120/18 76/119/17 78/121/19 77/122/20
f 77/122/20 78/121/19 80/123/21 79/124/22
f 79/124/22 80/123/21 82/125/23 81/126/24
f 81/126/24 82/125/23 84/127/25 83/128/26
f 83/128/26 84/127/25 86/129/27 85/130/28
f 85/130/28 86/129/27 88/131/29 87/132/30
f 87/132/30 88/131/29 90/133/31 89/134/32
f 89/134/32 90/133/31 92/135/33 91/136/34
f 91/136/34 92/135/33 94/137/35 93/138/36
f 93/138/36 94/137/35 96/139/37 95/140/38
f 95/140/38 96/139/37 98/141/39 97/142/40
f 97/142/40 98/141/39 100/143/41 99/144/42
f 99/144/42 100/143/41 102/145/43 101/146/44
f 101/146/44 102/145/43 104/147/45 103/148/46
f 103/148/46 104/147/45 106/149/47 105/150/48
f 105/150/48 106/149/47 108/151/49 107/152/50
f 107/152/50 108/151/49 110/153/51 109/154/52
f 109/154/52 110/153/51 112/155/53 111/156/54
f 111/156/54 112/155/53 114/157/55 113/158/56
f 113/158/56 114/157/55 116/159/57 115/160/58
f 115/160/58 116/159/57 118/161/59 117/162/60
f 117/162/60 118/161/59 120/163/61 119/164/62
f 119/164/62 120/163/61 122/165/63 121/166/64
f 121/166/64 122/165/63 124/167/65 123/168/66
f 123/168/66 124/167/65 126/169/67 125/170/68
f 68/171/9 66/172/8 128/173/69 126/174/67 124/175/65 122/176/63 120/177/61 118/178/59 116/179/57 114/180/55 112/181/53 110/182/51 108/183/49 106/184/47 104/185/45 102/186/43 100/187/41 98/188/39 96/189/37 94/190/35 92/191/33 90/192/31 88/193/29 86/194/27 84/195/25 82/196/23 80/197/21 78/198/19 76/199/17 74/200/15 72/201/13 70/202/11
f 125/170/68 126/169/67 128/203/69 127/204/70
f 127/204/70 128/203/69 66/205/8 65/206/7
f 65/207/7 67/208/10 69/209/12 71/210/14 73/211/16 75/212/18 77/213/20 79/214/22 81/215/24 83/216/26 85/217/28 87/218/30 89/219/32 91/220/34 93/221/36 95/222/38 97/223/40 99/224/42 101/225/44 103/226/46 105/227/48 107/228/50 109/229/52 111/230/54 113/231/56 115/232/58 117/233/60 119/234/62 121/235/64 123/236/66 125/237/68 127/238/70
