# Blender v2.93.0 OBJ File: 'palmlane.blend'
# www.blender.org
mtllib longbank.mtl
o Cube.003
v 9.256115 -0.003058 8.137682
v 9.256115 0.957706 8.137682
v 9.921677 -0.003058 18.946882
v 9.921677 0.957706 18.946882
v 9.921677 -0.003058 8.137682
v 9.921677 0.957706 8.137682
v 9.174252 0.957706 19.057457
v 9.174252 0.957706 8.027107
v 10.003539 0.957706 8.027107
v 10.003539 0.957706 19.057457
v 9.174252 1.080202 19.057457
v 9.174252 1.080202 8.027107
v 10.003539 1.080202 8.027107
v 10.003539 1.080202 19.057457
v 9.253590 1.080202 18.948586
v 9.253590 1.080202 8.135980
v 9.924202 1.080202 8.135980
v 9.924202 1.080202 18.948586
v 9.262184 -0.003058 18.946882
v 9.256115 -0.003058 18.848309
v 9.257893 -0.003058 18.918011
v 9.256115 0.957706 18.848309
v 9.262184 0.957706 18.946882
v 9.250066 0.957706 18.955051
v 9.257893 0.957706 18.918011
v 9.253590 1.080202 18.958584
v 9.253590 1.080202 8.145979
v 9.924202 1.080202 8.145979
v 9.924202 1.080202 18.958584
v 9.253590 1.070202 18.958584
v 9.253590 1.070202 8.145979
v 9.924202 1.070202 8.145979
v 9.924202 1.070202 18.958584
vt 0.375000 0.750000
vt 0.625000 0.750000
vt 0.625000 0.997720
vt 0.375000 0.997720
vt 0.375000 0.250000
vt 0.625000 0.250000
vt 0.625000 0.500000
vt 0.375000 0.500000
vt 0.375000 0.002280
vt 0.625000 0.002280
vt 0.625000 1.000000
vt 0.375000 1.000000
vt 0.375000 0.000000
vt 0.625000 0.000000
vt 0.125000 0.500000
vt 0.127280 0.750000
vt 0.125668 0.749332
vt 0.125000 0.747720
vt 0.625000 0.500000
vt 0.875000 0.500000
vt 0.875000 0.750000
vt 0.625000 0.750000
vt 0.625000 0.000000
vt 0.625000 0.000000
vt 0.625000 0.250000
vt 0.625000 0.500000
vt 0.625000 0.750000
vt 0.625000 1.000000
vt 0.625000 0.750000
vt 0.625000 1.000000
vt 0.625000 1.000000
vt 0.625000 0.500000
vt 0.625000 0.250000
vt 0.625000 0.250000
vt 0.625000 0.500000
vt 0.625000 0.000000
vt 0.625000 0.750000
vt 0.625000 0.500000
vt 0.625000 0.750000
vt 0.625000 0.000000
vt 0.625000 1.000000
vt 0.625000 0.000668
vt 0.625000 0.000000
vt 0.625000 0.250000
vt 0.625000 0.250000
vt 0.625000 0.000000
vt 0.625000 1.000000
vt 0.625000 0.000000
vt 0.625000 1.000000
vn 0.0000 0.0000 1.0000
vn 0.0000 0.0000 -1.0000
vn 1.0000 0.0000 0.0000
vn -1.0000 0.0000 0.0000
vn -0.9891 0.0000 0.1470
vn -0.9997 0.0000 0.0255
vn 0.0000 -1.0000 -0.0000
vn 0.0000 1.0000 0.0000
usemtl Cement
s off
f 3/1/1 4/2/1 23/3/1 19/4/1
f 1/5/2 2/6/2 6/7/2 5/8/2
f 5/8/3 6/7/3 4/2/3 3/1/3
f 20/9/4 22/10/4 2/6/4 1/5/4
f 19/4/5 23/3/5 25/11/5 21/12/5
f 21/13/6 25/14/6 22/10/6 20/9/6
f 1/15/7 5/8/7 3/1/7 19/16/7 21/17/7 20/18/7
f 32/19/8 31/20/8 30/21/8 33/22/8
usemtl MetalCoping
f 2/6/7 22/10/7 24/23/7 7/24/7 8/25/7
f 4/2/7 6/7/7 9/26/7 10/27/7
f 7/28/1 10/27/1 14/29/1 11/30/1
f 24/31/7 23/3/7 4/2/7 10/27/7 7/28/7
f 6/7/7 2/6/7 8/25/7 9/26/7
f 13/32/8 12/33/8 16/34/8 17/35/8
f 9/26/2 8/25/2 12/33/2 13/32/2
f 10/27/3 9/26/3 13/32/3 14/29/3
f 8/25/4 7/24/4 11/36/4 12/33/4
f 18/37/8 17/35/8 28/38/8 29/39/8
f 14/29/8 13/32/8 17/35/8 18/37/8
f 12/33/8 11/36/8 15/40/8 16/34/8
f 11/30/8 14/29/8 18/37/8 15/41/8
f 22/10/7 25/42/7 24/23/7
f 25/42/7 23/43/7 24/23/7
f 28/38/1 27/44/1 31/45/1 32/19/1
f 16/34/1 15/40/1 26/46/1 27/44/1
f 15/41/7 18/37/7 29/39/7 26/47/7
f 17/35/8 16/34/8 27/44/8 28/38/8
f 29/39/4 28/38/4 32/19/4 33/22/4
f 27/44/3 26/46/3 30/48/3 31/45/3
f 26/47/2 29/39/2 33/22/2 30/49/2
