# Blender v2.93.0 OBJ File: 'palmlane.blend'
# www.blender.org
mtllib minibank.mtl
o Cube.005_Cube.006
v 9.244030 0.000000 -5.697751
v 9.244030 0.676845 -5.697751
v 9.909592 0.000000 0.705356
v 9.909592 0.676845 0.705356
v 9.909592 0.000000 -5.697751
v 9.909592 0.676845 -5.697751
v 9.162167 0.676845 0.770858
v 9.162167 0.676845 -5.763252
v 9.991454 0.676845 -5.763252
v 9.991454 0.676845 0.770858
v 9.162167 0.763141 0.770858
v 9.162167 0.763141 -5.763252
v 9.991454 0.763141 -5.763252
v 9.991454 0.763141 0.770858
v 9.241505 0.763141 0.706364
v 9.241505 0.763141 -5.698759
v 9.912117 0.763141 -5.698759
v 9.912117 0.763141 0.706364
v 9.250099 0.000000 0.705356
v 9.244030 0.000000 0.646963
v 9.245808 0.000000 0.688253
v 9.244030 0.676845 0.646963
v 9.250099 0.676845 0.705356
v 9.237981 0.676845 0.710196
v 9.245808 0.676845 0.688253
v 9.241505 0.753141 0.706364
v 9.241505 0.753141 -5.698759
v 9.912117 0.753141 -5.698759
v 9.912117 0.753141 0.706364
vt 0.375000 0.750000
vt 0.625000 0.750000
vt 0.625000 0.997720
vt 0.375000 0.997720
vt 0.375000 0.250000
vt 0.625000 0.250000
vt 0.625000 0.500000
vt 0.375000 0.500000
vt 0.375000 0.002280
vt 0.625000 0.002280
vt 0.625000 1.000000
vt 0.375000 1.000000
vt 0.375000 0.000000
vt 0.625000 0.000000
vt 0.125000 0.500000
vt 0.127280 0.750000
vt 0.125668 0.749332
vt 0.125000 0.747720
vt 0.625000 0.500000
vt 0.875000 0.500000
vt 0.875000 0.750000
vt 0.625000 0.750000
vt 0.625000 0.000000
vt 0.625000 0.000000
vt 0.625000 0.250000
vt 0.625000 0.500000
vt 0.625000 0.750000
vt 0.625000 1.000000
vt 0.625000 0.750000
vt 0.625000 1.000000
vt 0.625000 1.000000
vt 0.625000 0.500000
vt 0.625000 0.250000
vt 0.625000 0.250000
vt 0.625000 0.500000
vt 0.625000 0.000000
vt 0.625000 1.000000
vt 0.625000 0.750000
vt 0.625000 1.000000
vt 0.625000 0.000000
vt 0.625000 0.000668
vt 0.625000 0.000000
vt 0.625000 0.250000
vt 0.625000 0.000000
vn 0.0000 0.0000 1.0000
vn 0.0000 0.0000 -1.0000
vn 1.0000 0.0000 0.0000
vn -1.0000 0.0000 0.0000
vn -0.9699 0.0000 0.2434
vn -0.9991 0.0000 0.0430
vn 0.0000 -1.0000 0.0000
vn 0.0000 1.0000 0.0000
usemtl Cement
s off
f 3/1/1 4/2/1 23/3/1 19/4/1
f 1/5/2 2/6/2 6/7/2 5/8/2
f 5/8/3 6/7/3 4/2/3 3/1/3
f 20/9/4 22/10/4 2/6/4 1/5/4
f 19/4/5 23/3/5 25/11/5 21/12/5
f 21/13/6 25/14/6 22/10/6 20/9/6
f 1/15/7 5/8/7 3/1/7 19/16/7 21/17/7 20/18/7
f 28/19/8 27/20/8 26/21/8 29/22/8
usemtl MetalCoping
f 2/6/7 22/10/7 24/23/7 7/24/7 8/25/7
f 4/2/7 6/7/7 9/26/7 10/27/7
f 7/28/1 10/27/1 14/29/1 11/30/1
f 24/31/7 23/3/7 4/2/7 10/27/7 7/28/7
f 6/7/7 2/6/7 8/25/7 9/26/7
f 13/32/8 12/33/8 16/34/8 17/35/8
f 9/26/2 8/25/2 12/33/2 13/32/2
f 10/27/3 9/26/3 13/32/3 14/29/3
f 8/25/4 7/24/4 11/36/4 12/33/4
f 15/37/2 18/38/2 29/22/2 26/39/2
f 14/29/8 13/32/8 17/35/8 18/38/8
f 12/33/8 11/36/8 15/40/8 16/34/8
f 11/30/8 14/29/8 18/38/8 15/37/8
f 22/10/7 25/41/7 24/23/7
f 25/41/7 23/42/7 24/23/7
f 17/35/1 16/34/1 27/43/1 28/19/1
f 18/38/4 17/35/4 28/19/4 29/22/4
f 16/34/3 15/40/3 26/44/3 27/43/3
